<?xml version="1.0" standalone="no"?>
<!DOCTYPE svg PUBLIC "-//W3C//DTD SVG 20010904//EN"
 "http://www.w3.org/TR/2001/REC-SVG-20010904/DTD/svg10.dtd">
<svg version="1.0" xmlns="http://www.w3.org/2000/svg"
 width="668.000000pt" height="668.000000pt" viewBox="0 0 668.000000 668.000000"
 preserveAspectRatio="xMidYMid meet">
<metadata>
Created by potrace 1.11, written by Peter Selinger 2001-2013
</metadata>
<g transform="translate(0.000000,668.000000) scale(0.100000,-0.100000)"
fill="#000000" stroke="none">
<path d="M3820 5899 c-186 -47 -558 -191 -870 -336 -52 -25 -117 -54 -145 -66
-72 -31 -645 -317 -740 -370 -44 -24 -114 -62 -155 -84 -407 -220 -746 -439
-901 -584 -79 -74 -186 -266 -203 -365 -3 -16 -9 -49 -14 -74 -10 -51 -8 -235
3 -308 3 -26 9 -63 11 -82 3 -19 10 -62 16 -95 6 -33 12 -80 13 -105 2 -25 4
-45 5 -45 2 0 10 -57 14 -110 2 -27 7 -57 9 -65 3 -8 8 -37 11 -65 7 -64 10
-75 37 -176 39 -150 98 -258 181 -338 l43 -40 0 -210 c1 -116 3 -212 5 -214 5
-4 202 -116 285 -161 185 -101 265 -150 258 -156 -4 -5 -47 -28 -95 -53 -48
-25 -105 -59 -126 -75 -36 -29 -69 -46 -263 -135 -89 -40 -153 -95 -169 -141
-43 -130 9 -257 146 -353 156 -110 710 -286 1004 -320 25 -3 70 -8 100 -12 95
-12 376 -3 461 15 13 2 40 7 59 10 106 17 314 78 435 129 49 20 461 226 571
285 43 24 106 57 139 75 33 17 96 51 140 75 44 23 100 54 125 68 77 43 123 68
195 107 94 51 573 318 655 365 36 20 85 49 110 62 495 278 899 519 944 564 37
37 53 86 41 124 -30 94 -242 212 -540 299 -60 18 -128 38 -150 44 -40 12 -41
14 -36 80 1 7 30 27 66 45 36 19 65 39 66 45 2 35 1 98 -2 101 -4 4 -34 20
-384 206 -126 67 -237 128 -245 135 -8 7 -42 24 -75 39 l-60 27 22 19 c28 22
55 17 103 -21 51 -40 81 -42 105 -5 45 68 -70 132 -155 86 -11 -6 -20 -14 -20
-19 0 -4 -11 -13 -25 -19 -29 -13 -30 -12 -11 33 17 39 42 55 89 55 35 0 142
32 189 56 15 8 32 23 38 34 9 17 6 25 -19 50 -16 17 -35 30 -43 31 -7 0 -21 2
-31 4 -32 6 -117 -21 -143 -45 -13 -13 -29 -40 -34 -60 -5 -19 -21 -51 -34
-69 -25 -33 -25 -33 -30 -10 -12 65 -6 84 51 158 18 24 33 54 33 66 0 65 -89
83 -120 24 -19 -34 -21 -95 -6 -136 18 -47 27 -103 16 -103 -10 0 -27 45 -36
92 -3 20 -14 44 -23 52 -28 25 -87 46 -150 52 -56 6 -60 5 -76 -20 -16 -24
-16 -30 -4 -53 20 -38 63 -60 143 -74 74 -12 98 -24 122 -57 16 -23 29 -106
16 -100 -58 23 -462 246 -462 256 0 6 3 12 8 12 8 0 103 91 137 131 87 102
167 266 191 391 2 13 6 34 10 48 10 43 12 281 4 365 -12 115 -29 220 -61 375
-17 80 -91 259 -111 268 -5 2 -8 8 -8 14 0 29 -169 219 -240 269 -146 104
-255 127 -410 88z m-530 -2873 c0 -42 -1 -45 -28 -44 -38 1 -68 -17 -82 -49
-12 -26 -16 -28 -62 -24 -59 4 -131 -20 -170 -57 -49 -45 -68 -136 -54 -257 3
-33 8 -83 11 -111 l5 -51 -48 -21 c-183 -82 -256 -115 -398 -183 -125 -58
-370 -177 -427 -206 l-48 -24 3 271 3 271 70 32 c174 79 552 279 771 406 39
22 74 41 77 41 4 0 37 -20 74 -43 37 -24 76 -47 85 -50 21 -8 153 78 202 130
16 18 16 17 16 -31z"/>
<path d="M5556 4842 c-3 -5 1 -9 9 -9 8 0 12 4 9 9 -3 4 -7 8 -9 8 -2 0 -6 -4
-9 -8z"/>
<path d="M5525 4799 c-3 -4 2 -6 10 -5 21 3 28 13 10 13 -9 0 -18 -4 -20 -8z"/>
<path d="M5445 4780 c-3 -6 1 -7 9 -4 18 7 21 14 7 14 -6 0 -13 -4 -16 -10z"/>
<path d="M5476 4774 c-8 -20 -8 -24 2 -24 4 0 8 9 9 20 2 24 -3 26 -11 4z"/>
<path d="M5539 4778 c-5 -18 -6 -38 -1 -34 7 8 12 36 6 36 -2 0 -4 -1 -5 -2z"/>
<path d="M5590 4776 c0 -2 8 -10 18 -17 15 -13 16 -12 3 4 -13 16 -21 21 -21
13z"/>
<path d="M5370 4730 c-6 -11 -8 -20 -6 -20 3 0 10 9 16 20 6 11 8 20 6 20 -3
0 -10 -9 -16 -20z"/>
<path d="M5559 4733 c-13 -16 -12 -17 4 -4 16 13 21 21 13 21 -2 0 -10 -8 -17
-17z"/>
<path d="M5593 4735 c0 -8 4 -12 9 -9 5 3 6 10 3 15 -9 13 -12 11 -12 -6z"/>
<path d="M5395 4731 c-3 -5 0 -13 6 -17 7 -4 9 -3 5 4 -3 5 0 13 6 15 9 4 10
6 1 6 -6 1 -14 -3 -18 -8z"/>
<path d="M5445 4730 c-16 -7 -17 -9 -3 -9 9 -1 20 4 23 9 7 11 7 11 -20 0z"/>
<path d="M5341 4717 c-1 -11 -6 -15 -13 -11 -7 5 -8 3 -3 -5 10 -16 29 2 22
21 -4 8 -6 7 -6 -5z"/>
<path d="M5496 4722 c-3 -5 1 -9 9 -9 8 0 12 4 9 9 -3 4 -7 8 -9 8 -2 0 -6 -4
-9 -8z"/>
<path d="M5297 4704 c-3 -5 1 -15 9 -22 16 -14 18 -5 5 17 -5 7 -11 9 -14 5z"/>
<path d="M5376 4701 c-4 -5 -3 -16 0 -24 6 -17 -26 -19 -39 -2 -5 6 -7 4 -5
-5 3 -8 15 -14 29 -14 19 0 23 5 22 23 -2 14 1 20 9 15 7 -4 8 -3 4 4 -9 14
-13 15 -20 3z"/>
<path d="M5428 4703 c7 -3 16 -2 19 1 4 3 -2 6 -13 5 -11 0 -14 -3 -6 -6z"/>
<path d="M5515 4700 c-16 -7 -17 -9 -3 -9 9 -1 20 4 23 9 7 11 7 11 -20 0z"/>
<path d="M5272 4684 c4 -4 -4 -16 -18 -26 -14 -11 -23 -23 -20 -25 3 -3 12 2
21 11 9 9 21 13 27 10 6 -4 8 -2 4 4 -3 5 -1 12 6 14 7 3 4 7 -7 12 -11 4 -16
4 -13 0z"/>
<path d="M5226 4665 c-11 -8 -15 -15 -9 -15 6 0 16 7 23 15 16 19 11 19 -14 0z"/>
<path d="M5415 4659 c-4 -6 -5 -12 -2 -15 2 -3 7 2 10 11 7 17 1 20 -8 4z"/>
<path d="M5460 4666 c0 -2 7 -7 16 -10 8 -3 12 -2 9 4 -6 10 -25 14 -25 6z"/>
<path d="M5301 4644 c0 -11 3 -14 6 -6 3 7 2 16 -1 19 -3 4 -6 -2 -5 -13z"/>
<path d="M5391 4634 c0 -11 3 -14 6 -6 3 7 2 16 -1 19 -3 4 -6 -2 -5 -13z"/>
<path d="M5180 4631 c8 -5 18 -7 23 -4 5 3 6 -4 2 -16 -4 -13 -2 -21 5 -21 6
0 8 5 5 10 -3 6 -2 10 4 10 5 0 11 -6 14 -12 3 -10 10 -8 23 5 11 10 13 17 6
17 -7 0 -12 -5 -12 -12 0 -6 -9 -3 -20 7 -12 11 -31 20 -43 22 -17 2 -19 1 -7
-6z"/>
<path d="M5260 4636 c0 -2 7 -6 15 -10 8 -3 15 -1 15 4 0 6 -7 10 -15 10 -8 0
-15 -2 -15 -4z"/>
<path d="M5350 4630 c0 -5 5 -10 10 -10 6 0 10 5 10 10 0 6 -4 10 -10 10 -5 0
-10 -4 -10 -10z"/>
<path d="M5141 4608 c-7 -11 -15 -17 -18 -14 -8 8 -84 -34 -78 -43 3 -5 -2
-11 -9 -14 -8 -3 -14 -15 -13 -25 1 -13 6 -18 17 -14 13 5 13 4 1 -12 -11 -13
-12 -19 -2 -29 7 -7 12 -7 11 -2 -4 21 0 36 9 30 6 -3 8 -14 6 -24 -3 -15 1
-19 16 -16 10 2 19 -2 19 -8 0 -7 4 -6 10 3 5 8 10 11 10 6 0 -5 8 -2 18 7 10
10 22 14 25 11 4 -4 9 1 13 10 3 9 14 16 23 16 12 0 13 2 3 9 -11 7 -10 10 3
15 23 8 27 8 20 -4 -3 -6 1 -7 10 -4 8 4 15 11 14 18 -4 32 2 48 16 42 8 -3
22 -3 30 0 13 5 13 9 3 22 -11 13 -9 14 12 8 20 -6 22 -5 10 4 -12 10 -11 11
8 7 12 -3 20 -1 16 4 -8 14 -26 11 -64 -13 -19 -12 -50 -22 -68 -23 -28 -1
-31 2 -26 20 4 16 3 17 -5 5 -9 -13 -11 -13 -11 2 0 26 -15 29 -29 6z m23 -30
c-3 -4 0 -8 7 -8 16 0 3 -13 -17 -16 -11 -2 -13 4 -9 19 5 17 4 19 -4 7 -6 -8
-11 -10 -11 -4 0 5 5 15 12 22 9 9 14 9 19 0 4 -7 5 -16 3 -20z m-36 -17 c9
-24 8 -29 -3 -25 -8 3 -13 11 -11 17 1 7 1 9 -1 5 -3 -5 -9 -8 -14 -8 -6 0 -7
5 -3 12 4 7 3 8 -4 4 -9 -5 -9 -13 -2 -26 7 -13 7 -21 0 -25 -5 -3 -10 -3 -11
2 0 4 -2 17 -4 29 -4 19 3 26 42 43 0 1 6 -12 11 -28z m162 19 c0 -5 -4 -10
-10 -10 -5 0 -10 5 -10 10 0 6 5 10 10 10 6 0 10 -4 10 -10z m-54 -37 c1 -12
-3 -20 -7 -17 -14 8 -47 -14 -54 -37 -4 -11 -9 -18 -12 -15 -4 3 -13 0 -21 -6
-17 -14 -44 -20 -37 -8 3 5 -3 11 -12 15 -10 3 -29 15 -43 26 -22 19 -23 22
-7 30 10 6 14 16 11 22 -4 7 -3 8 1 4 9 -7 15 -28 17 -54 1 -7 7 -14 14 -17 8
-3 11 0 8 8 -3 8 0 17 5 21 6 3 8 11 5 17 -4 6 2 5 15 -1 17 -10 22 -9 27 4 3
8 10 13 14 10 5 -3 15 1 22 8 20 22 53 16 54 -10z m-146 -83 c0 -5 -2 -10 -4
-10 -3 0 -8 5 -11 10 -3 6 -1 10 4 10 6 0 11 -4 11 -10z"/>
<path d="M5215 4550 c-4 -6 -11 -7 -17 -4 -7 4 -8 2 -4 -5 6 -9 11 -9 22 0 14
11 18 19 10 19 -3 0 -8 -5 -11 -10z"/>
<path d="M5160 4524 c-7 -8 -19 -13 -26 -10 -22 8 -35 -18 -20 -39 13 -18 14
-17 30 13 9 18 21 30 26 27 5 -3 11 -1 14 4 11 17 -11 21 -24 5z m-27 -40 c-4
-12 -8 -13 -14 -3 -9 15 -2 32 11 24 5 -3 6 -13 3 -21z"/>
<path d="M5050 4521 c0 -6 4 -13 10 -16 6 -3 7 1 4 9 -7 18 -14 21 -14 7z"/>
<path d="M5415 4620 c3 -5 8 -10 11 -10 2 0 4 5 4 10 0 6 -5 10 -11 10 -5 0
-7 -4 -4 -10z"/>
<path d="M5340 4579 c-34 -29 -34 -30 -4 -10 17 11 35 17 39 13 5 -4 5 -2 2 5
-4 6 -1 14 5 16 7 3 8 6 3 6 -6 1 -26 -13 -45 -30z"/>
<path d="M5260 4538 c0 -4 6 -8 14 -8 8 0 17 4 20 8 2 4 -4 8 -15 8 -10 0 -19
-4 -19 -8z"/>
<path d="M515 3249 c-4 -6 -5 -12 -2 -15 2 -3 7 2 10 11 7 17 1 20 -8 4z"/>
<path d="M522 3218 c-15 -15 -15 -28 0 -28 6 0 8 3 5 7 -4 3 -2 12 4 20 14 16
7 17 -9 1z"/>
<path d="M444 3179 c-3 -6 -2 -15 3 -20 5 -5 9 -1 9 11 0 23 -2 24 -12 9z"/>
<path d="M470 3186 c0 -2 7 -7 16 -10 8 -3 12 -2 9 4 -6 10 -25 14 -25 6z"/>
<path d="M693 3170 c-1 -11 2 -22 6 -24 4 -3 7 4 6 14 -2 27 -10 33 -12 10z"/>
<path d="M397 3173 c-10 -9 -9 -23 1 -23 5 0 9 7 9 15 0 17 -1 18 -10 8z"/>
<path d="M472 3165 c4 -5 2 -15 -5 -24 -10 -14 -10 -14 5 -3 9 8 22 11 28 7 5
-3 10 -4 10 -1 0 3 -10 11 -22 17 -13 6 -20 8 -16 4z"/>
<path d="M570 3158 c0 -4 4 -8 9 -8 6 0 12 4 15 8 3 5 -1 9 -9 9 -8 0 -15 -4
-15 -9z"/>
<path d="M316 3143 c-9 -22 5 -35 24 -22 12 9 12 10 -3 5 -15 -5 -17 -2 -12
14 8 24 0 27 -9 3z"/>
<path d="M374 3142 c3 -5 0 -13 -6 -15 -9 -4 -10 -6 -1 -6 17 -1 25 16 12 25
-7 4 -9 3 -5 -4z"/>
<path d="M540 3146 c0 -2 8 -10 18 -17 15 -13 16 -12 3 4 -13 16 -21 21 -21
13z"/>
<path d="M402 3124 c-7 -8 -8 -14 -3 -14 10 0 25 19 20 25 -2 1 -10 -3 -17
-11z"/>
<path d="M290 3119 c0 -19 27 -45 37 -36 3 4 13 1 22 -6 14 -10 14 -10 3 5
-12 15 -11 17 7 15 13 -1 19 -8 18 -20 -1 -12 5 -21 16 -22 9 -2 17 1 17 7 0
6 -7 8 -15 4 -10 -4 -14 1 -12 16 2 24 -29 34 -50 16 -15 -12 -15 -12 -31 17
-9 16 -11 17 -12 4z"/>
<path d="M440 3120 c8 -5 20 -10 25 -10 6 0 3 5 -5 10 -8 5 -19 10 -25 10 -5
0 -3 -5 5 -10z"/>
<path d="M520 3126 c0 -2 8 -10 18 -17 15 -13 16 -12 3 4 -13 16 -21 21 -21
13z"/>
<path d="M265 3096 c3 -21 0 -26 -12 -22 -26 10 6 -23 38 -40 35 -18 43 -18
36 1 -4 8 -2 17 3 20 6 4 10 -2 10 -11 0 -10 3 -15 6 -11 4 3 4 14 0 23 -6 15
-8 16 -24 0 -23 -20 -39 -21 -22 -1 8 9 8 15 2 15 -6 0 -12 -6 -15 -12 -2 -7
-8 -10 -12 -6 -4 4 -3 14 3 21 9 10 8 18 -2 32 -13 18 -13 17 -11 -9z"/>
<path d="M220 3083 c-7 -16 -13 -32 -11 -36 1 -5 -3 -5 -9 -2 -6 4 -9 14 -6
22 4 8 1 11 -5 8 -6 -4 -8 -13 -5 -21 3 -7 1 -16 -4 -19 -6 -4 -10 -1 -10 4 0
6 -7 11 -15 11 -8 0 -15 -5 -15 -11 0 -5 -4 -8 -9 -4 -12 7 -33 -29 -24 -39 3
-3 2 -6 -4 -6 -6 0 -14 -7 -17 -16 -3 -8 -2 -12 4 -9 6 3 10 1 10 -4 0 -6 -6
-11 -12 -11 -10 0 -10 -2 0 -9 8 -4 13 -12 13 -17 -1 -5 3 -9 8 -9 5 0 13 -3
17 -7 4 -5 1 -8 -6 -8 -9 0 -7 -5 6 -14 15 -11 22 -12 33 -3 12 10 14 8 8 -8
l-7 -20 15 20 c17 22 24 23 35 5 10 -17 31 -3 23 15 -3 8 0 15 6 15 6 0 11 -6
11 -12 0 -10 2 -10 9 0 4 8 12 13 17 13 5 -1 10 8 10 19 1 11 6 26 13 34 14
17 -9 29 -36 19 -17 -5 -17 -5 -1 12 15 16 18 16 38 2 22 -16 55 -13 44 4 -3
5 4 9 15 9 28 0 26 -14 -4 -30 -14 -7 -25 -17 -25 -22 0 -5 -4 -7 -9 -3 -12 7
-24 -12 -16 -25 3 -5 24 9 46 31 22 22 37 44 34 49 -9 15 -43 12 -52 -4 -7
-12 -15 -10 -47 12 -46 32 -67 62 -48 69 13 5 17 23 4 23 -5 0 -15 -12 -22
-27z m27 -47 c15 -17 18 -27 10 -35 -16 -16 -32 -14 -18 2 9 11 4 13 -25 12
-23 -2 -34 1 -31 9 2 6 12 10 22 8 13 -3 16 1 12 12 -9 24 6 19 30 -8z m-54
-48 c13 -14 14 -18 3 -18 -8 0 -18 5 -21 11 -4 6 -13 8 -21 5 -8 -3 -11 0 -7
9 3 8 10 12 16 8 6 -3 7 -1 3 5 -4 6 -13 9 -22 5 -8 -3 -13 -8 -10 -11 3 -2 1
-13 -5 -24 -10 -18 -8 -18 10 -8 23 12 41 6 41 -13 0 -7 -4 -6 -10 3 -8 12
-12 13 -19 2 -4 -8 -11 -13 -15 -13 -20 3 -26 0 -20 -11 6 -9 9 -9 12 0 2 7 8
10 12 7 5 -3 7 -13 4 -23 -5 -13 -4 -14 4 -3 7 9 12 10 16 2 4 -6 12 -9 17 -6
5 4 6 -2 2 -11 -4 -11 -8 -13 -11 -6 -2 7 -8 12 -13 12 -5 0 -8 -3 -7 -7 2 -5
0 -9 -4 -10 -5 -2 -8 0 -9 5 -1 13 -21 32 -28 27 -6 -3 -7 50 -1 65 1 3 2 8 1
13 0 4 4 7 10 7 5 0 7 5 3 12 -4 6 -3 8 4 4 6 -3 14 -1 18 6 5 8 11 7 18 -7 6
-10 19 -27 29 -37z m35 13 c-2 -5 6 -17 17 -25 20 -16 20 -16 1 -31 -11 -8
-22 -12 -25 -9 -3 3 3 12 13 20 11 8 15 14 9 14 -18 0 -37 -30 -27 -40 12 -12
54 15 54 36 0 8 5 14 11 14 7 0 8 -7 4 -17 -4 -10 -8 -27 -7 -38 0 -11 -2 -14
-5 -7 -3 6 -9 12 -14 12 -6 0 -8 -4 -5 -9 3 -5 -2 -8 -12 -7 -11 0 -16 -6 -16
-17 2 -13 -1 -15 -10 -7 -7 5 -16 6 -20 2 -5 -4 -6 2 -4 13 1 11 -2 19 -9 18
-6 -1 -17 5 -25 14 -11 15 -11 16 4 10 10 -3 20 -2 23 4 4 5 11 7 16 4 5 -4
10 0 10 7 1 7 2 18 4 23 1 6 3 13 3 18 1 4 4 7 7 7 3 0 4 -4 3 -9z"/>
<path d="M190 2943 c0 -6 8 -17 18 -24 16 -13 16 -13 2 6 -8 11 -16 22 -17 24
-2 2 -3 0 -3 -6z"/>
<path d="M416 3101 c-3 -5 1 -14 9 -21 10 -9 15 -9 15 -1 0 6 -5 11 -11 11 -5
0 -7 5 -4 10 3 6 4 10 1 10 -3 0 -7 -4 -10 -9z"/>
<path d="M586 3098 c3 -4 9 -8 15 -8 5 0 9 4 9 8 0 5 -7 9 -15 9 -8 0 -12 -4
-9 -9z"/>
<path d="M513 3084 c8 -9 47 -13 51 -6 2 4 -9 8 -25 8 -17 1 -28 0 -26 -2z"/>
<path d="M455 3071 c-3 -5 0 -13 6 -17 8 -5 9 -3 4 6 -6 10 -4 12 9 7 10 -4
15 -3 11 3 -8 13 -22 13 -30 1z"/>
<path d="M508 3063 c6 -2 9 -10 6 -15 -4 -7 -2 -8 5 -4 13 9 5 26 -12 25 -9 0
-8 -2 1 -6z"/>
<path d="M419 3048 c-1 -7 -1 -16 0 -20 2 -12 -17 -10 -22 2 -3 6 -4 5 -3 -2
4 -22 29 -14 32 10 2 12 2 22 -1 22 -3 0 -6 -6 -6 -12z"/>
<path d="M440 3036 c0 -8 4 -17 9 -20 5 -4 7 3 4 14 -6 23 -13 26 -13 6z"/>
<path d="M475 3020 c-3 -5 -1 -10 4 -10 6 0 11 5 11 10 0 6 -2 10 -4 10 -3 0
-8 -4 -11 -10z"/>
<path d="M420 3000 c-9 -6 -10 -10 -3 -10 6 0 15 5 18 10 8 12 4 12 -15 0z"/>
<path d="M390 2969 c0 -5 5 -7 10 -4 6 3 10 8 10 11 0 2 -4 4 -10 4 -5 0 -10
-5 -10 -11z"/>
<path d="M6230 2080 c0 -5 5 -10 11 -10 5 0 7 5 4 10 -3 6 -8 10 -11 10 -2 0
-4 -4 -4 -10z"/>
<path d="M6096 1993 c-6 -14 -5 -15 5 -6 7 7 10 15 7 18 -3 3 -9 -2 -12 -12z"/>
<path d="M6226 2002 c-3 -5 1 -9 9 -9 8 0 15 4 15 9 0 4 -4 8 -9 8 -6 0 -12
-4 -15 -8z"/>
<path d="M6156 1978 c3 -5 10 -6 15 -3 13 9 11 12 -6 12 -8 0 -12 -4 -9 -9z"/>
<path d="M6039 1968 c15 -21 31 -23 31 -6 0 6 -3 8 -7 5 -3 -4 -13 -1 -22 6
-14 11 -14 10 -2 -5z"/>
<path d="M6001 1936 c-9 -10 -8 -15 3 -19 9 -4 18 -1 22 5 5 7 2 8 -6 3 -10
-6 -12 -4 -7 8 8 21 3 22 -12 3z"/>
<path d="M6115 1942 c3 -3 -1 -12 -7 -21 -8 -10 -4 -9 10 3 26 23 26 23 7 23
-8 0 -13 -3 -10 -5z"/>
<path d="M6153 1925 c0 -8 4 -15 9 -15 4 0 8 4 8 9 0 6 -4 12 -8 15 -5 3 -9
-1 -9 -9z"/>
<path d="M5955 1909 c-4 -6 -5 -12 -2 -15 2 -3 7 2 10 11 7 17 1 20 -8 4z"/>
<path d="M5901 1884 c0 -11 3 -14 6 -6 3 7 2 16 -1 19 -3 4 -6 -2 -5 -13z"/>
<path d="M6056 1887 c3 -10 9 -15 12 -12 3 3 0 11 -7 18 -10 9 -11 8 -5 -6z"/>
<path d="M6093 1892 c-7 -4 -9 -13 -4 -21 6 -9 10 -7 14 8 3 12 4 21 4 21 -1
0 -7 -4 -14 -8z"/>
<path d="M5881 1874 c0 -11 3 -14 6 -6 3 7 2 16 -1 19 -3 4 -6 -2 -5 -13z"/>
<path d="M5976 1879 c3 -5 9 -7 14 -4 4 3 11 0 13 -5 3 -6 4 -5 3 1 -1 7 -10
13 -19 15 -9 1 -15 -2 -11 -7z"/>
<path d="M5956 1867 c3 -10 9 -15 12 -12 3 3 0 11 -7 18 -10 9 -11 8 -5 -6z"/>
<path d="M5840 1860 c-8 -5 -10 -10 -5 -10 6 0 17 5 25 10 8 5 11 10 5 10 -5
0 -17 -5 -25 -10z"/>
<path d="M5910 1860 c-13 -8 -12 -10 3 -10 9 0 17 5 17 10 0 12 -1 12 -20 0z"/>
<path d="M5939 1848 c-1 -7 -1 -17 0 -21 1 -5 -7 -6 -17 -3 -11 4 -24 0 -32
-9 -7 -8 -9 -15 -4 -15 5 0 2 -4 -6 -10 -8 -5 -11 -12 -7 -16 9 -9 37 27 31
38 -3 5 5 7 17 5 16 -1 23 4 25 21 2 12 2 22 -1 22 -3 0 -6 -6 -6 -12z"/>
<path d="M5800 1840 c-13 -8 -12 -10 3 -10 9 0 17 5 17 10 0 12 -1 12 -20 0z"/>
<path d="M5860 1846 c0 -2 7 -6 15 -10 8 -3 15 -1 15 4 0 6 -7 10 -15 10 -8 0
-15 -2 -15 -4z"/>
<path d="M5990 1830 c6 -11 13 -20 16 -20 2 0 0 9 -6 20 -6 11 -13 20 -16 20
-2 0 0 -9 6 -20z"/>
<path d="M6010 1838 c0 -11 12 -10 30 2 12 7 10 9 -8 7 -12 0 -22 -5 -22 -9z"/>
<path d="M5827 1825 c-9 -6 -14 -14 -12 -17 3 -3 -2 -11 -11 -19 -15 -12 -16
-11 -10 11 l8 25 -17 -23 c-16 -21 -18 -22 -34 -8 -19 18 -33 12 -24 -10 3 -8
0 -14 -6 -14 -6 0 -11 5 -11 11 0 5 -5 7 -11 3 -6 -3 -8 -16 -5 -28 5 -20 5
-20 -9 -2 -10 13 -15 15 -15 6 0 -7 -3 -11 -6 -7 -10 9 -66 -22 -59 -33 4 -6
1 -10 -5 -10 -7 0 -9 -8 -5 -21 5 -14 4 -19 -4 -15 -7 5 -9 1 -5 -8 3 -9 10
-16 15 -16 5 0 9 -7 9 -16 0 -10 6 -14 15 -11 8 4 17 2 19 -2 3 -5 16 -8 28
-7 17 1 22 7 20 21 -3 17 -2 17 14 4 11 -8 15 -9 10 -1 -7 12 9 17 44 13 13
-2 13 -1 0 8 -11 8 -12 11 -2 11 8 0 23 10 34 23 14 16 18 17 14 5 -3 -12 -1
-15 10 -11 13 5 13 8 -2 24 -18 20 -7 26 14 9 9 -7 9 -7 2 2 -12 15 -13 31 -1
24 5 -4 16 -3 25 0 13 5 14 10 5 20 -6 7 -8 18 -5 23 4 5 1 13 -5 17 -7 4 -9
3 -5 -4 3 -5 0 -13 -6 -15 -10 -4 -9 -8 2 -16 8 -5 11 -13 7 -17 -4 -4 -15 -1
-23 8 -15 14 -14 18 1 42 14 21 20 24 31 15 9 -7 14 -8 14 -1 0 16 -25 21 -43
7z m-61 -72 c-4 -4 -11 -2 -15 5 -6 10 -10 10 -20 -2 -16 -18 2 -31 26 -17 26
14 46 -17 24 -40 -19 -19 -81 -53 -81 -43 0 4 -7 1 -15 -6 -13 -11 -13 -15 -3
-22 8 -5 4 -7 -12 -5 -29 5 -36 40 -12 59 13 11 15 10 10 -3 -4 -10 -1 -16 8
-16 13 0 18 10 15 32 0 6 8 11 20 12 17 2 18 -1 9 -13 -12 -13 -9 -17 8 -11 4
1 6 6 4 11 -2 5 4 6 12 3 8 -3 19 0 25 7 14 17 2 29 -16 15 -9 -9 -17 -8 -27
0 -11 9 -15 9 -18 -1 -3 -7 -5 1 -5 18 0 22 5 31 16 30 10 -1 15 6 14 18 -1
17 0 17 20 -2 11 -12 18 -25 13 -29z m38 14 c15 -11 16 -15 3 -25 -11 -10 -16
-7 -25 13 -13 28 -5 32 22 12z m-116 -40 c4 -20 -9 -22 -26 -5 -7 7 -12 8 -12
4 0 -4 8 -15 18 -24 10 -10 13 -14 6 -10 -6 5 -18 0 -27 -10 -15 -17 -17 -20
-17 -44 -1 -18 -24 23 -25 45 -1 10 2 20 7 23 4 3 6 10 3 15 -6 8 8 13 28 10
4 0 7 3 7 8 0 16 35 5 38 -12z"/>
<path d="M5660 1650 c-8 -5 -12 -12 -9 -15 4 -3 12 1 19 10 14 17 11 19 -10 5z"/>
<path d="M5625 1713 c-12 -29 -13 -53 -1 -60 6 -3 8 -2 3 2 -4 5 1 17 10 27
16 18 16 18 -3 12 -17 -7 -17 -6 -5 9 8 10 12 20 9 23 -3 3 -9 -3 -13 -13z"/>
<path d="M5770 1821 c0 -7 -5 -9 -12 -5 -7 5 -8 3 -3 -5 5 -9 10 -10 18 -2 6
6 8 14 4 18 -4 3 -7 1 -7 -6z"/>
<path d="M6040 1820 c-9 -6 -10 -10 -3 -10 6 0 15 5 18 10 8 12 4 12 -15 0z"/>
<path d="M5970 1800 c0 -5 5 -10 10 -10 6 0 10 5 10 10 0 6 -4 10 -10 10 -5 0
-10 -4 -10 -10z"/>
<path d="M5935 1781 c-3 -6 3 -9 14 -8 11 0 17 5 15 9 -7 11 -22 10 -29 -1z"/>
<path d="M5878 1745 c-16 -13 -28 -27 -28 -31 0 -4 9 1 21 12 12 10 24 18 28
18 3 -1 5 3 3 8 -2 6 4 8 13 4 9 -3 13 -2 10 4 -9 15 -17 12 -47 -15z"/>
<path d="M595 1420 c3 -5 8 -10 11 -10 2 0 4 5 4 10 0 6 -5 10 -11 10 -5 0 -7
-4 -4 -10z"/>
<path d="M536 1382 c-2 -4 -1 -14 4 -22 7 -11 9 -9 7 8 -1 24 -3 26 -11 14z"/>
<path d="M570 1379 c0 -5 5 -7 10 -4 6 3 10 8 10 11 0 2 -4 4 -10 4 -5 0 -10
-5 -10 -11z"/>
<path d="M405 1340 c-3 -6 1 -7 9 -4 18 7 21 14 7 14 -6 0 -13 -4 -16 -10z"/>
<path d="M381 1314 c0 -11 3 -14 6 -6 3 7 2 16 -1 19 -3 4 -6 -2 -5 -13z"/>
<path d="M440 1326 c0 -2 8 -10 18 -17 15 -13 16 -12 3 4 -13 16 -21 21 -21
13z"/>
<path d="M351 1307 c-8 -10 -7 -14 2 -14 8 0 14 6 14 14 0 7 -1 13 -2 13 -2 0
-8 -6 -14 -13z"/>
<path d="M502 1284 c10 -10 20 -16 22 -13 3 3 -5 11 -17 18 -21 13 -21 12 -5
-5z"/>
<path d="M316 1281 c-4 -5 -3 -16 0 -25 5 -12 2 -15 -12 -10 -15 5 -16 4 -4
-4 20 -15 32 -4 24 20 -4 15 -3 18 6 13 9 -5 11 -4 6 3 -9 14 -13 15 -20 3z"/>
<path d="M446 1279 c3 -5 9 -7 14 -4 5 3 13 -3 19 -12 6 -10 11 -13 11 -6 0
13 -17 26 -38 29 -6 1 -10 -2 -6 -7z"/>
<path d="M272 1264 c-7 -8 -8 -14 -3 -14 10 0 25 19 20 25 -2 1 -10 -3 -17
-11z"/>
<path d="M372 1251 c-11 -7 -11 -9 0 -14 9 -3 15 1 15 9 0 8 -1 14 -1 14 -1 0
-7 -4 -14 -9z"/>
<path d="M406 1243 c-6 -14 -5 -15 5 -6 7 7 10 15 7 18 -3 3 -9 -2 -12 -12z"/>
<path d="M453 1245 c0 -8 4 -12 9 -9 5 3 6 10 3 15 -9 13 -12 11 -12 -6z"/>
<path d="M511 1247 c-8 -10 -7 -14 2 -14 8 0 14 6 14 14 0 7 -1 13 -2 13 -2 0
-8 -6 -14 -13z"/>
<path d="M254 1235 c11 -8 26 -15 34 -15 12 0 12 -3 1 -17 -13 -16 -12 -17 4
-4 20 16 16 22 -28 39 -28 11 -28 11 -11 -3z"/>
<path d="M228 1222 c9 -10 19 -17 21 -16 6 5 -20 34 -30 34 -5 0 -1 -8 9 -18z"/>
<path d="M337 1234 c-4 -4 -4 -11 -1 -15 7 -12 34 -11 34 1 0 5 -7 6 -17 3
-11 -4 -14 -3 -9 5 8 13 3 16 -7 6z"/>
<path d="M165 1209 c-5 -8 -4 -10 3 -5 12 7 13 6 17 -32 1 -12 5 -25 9 -29 8
-9 -14 -33 -30 -33 -8 0 -14 5 -14 10 0 6 6 9 13 8 6 -2 10 4 8 12 -2 8 -3 23
-3 32 0 9 -6 19 -14 22 -8 3 -13 2 -10 -3 8 -12 -22 -23 -37 -14 -7 3 -4 -3 6
-14 21 -24 11 -39 -12 -15 -9 10 -15 16 -15 14 1 -2 -9 -15 -22 -29 -21 -23
-22 -27 -8 -48 12 -18 12 -24 2 -28 -11 -4 -11 -6 0 -6 7 -1 11 -5 8 -10 -8
-13 28 -41 59 -47 23 -4 26 -2 21 13 -5 16 -4 15 9 -1 8 -11 15 -15 15 -8 0 6
8 9 18 6 14 -5 14 -4 3 4 -23 16 -23 44 0 37 12 -4 21 -1 25 9 3 9 10 13 16
10 13 -8 -10 -34 -31 -34 -14 0 -14 -2 -1 -10 9 -6 17 -5 21 1 3 6 9 10 13 10
3 -1 6 1 6 4 0 3 7 19 16 37 13 24 18 28 26 17 8 -11 9 -10 4 3 -3 10 1 21 9
25 12 7 11 11 -5 21 -12 7 -20 8 -20 2 0 -5 5 -10 11 -10 5 0 7 -5 4 -10 -11
-18 -36 10 -30 31 4 11 2 19 -5 19 -6 0 -9 3 -7 8 3 4 -1 13 -9 20 -19 17 -18
2 2 -26 24 -35 2 -26 -32 14 -23 26 -34 32 -39 23z m-8 -35 c-3 -4 -2 -16 4
-27 7 -13 7 -17 1 -13 -23 14 -24 -18 -1 -35 21 -16 21 -18 5 -15 -11 1 -22 8
-24 16 -4 10 -6 9 -14 -1 -8 -11 -9 -11 -5 2 3 9 -1 16 -8 16 -7 0 -11 -6 -8
-13 3 -9 -2 -12 -16 -9 -17 3 -19 1 -12 -13 4 -9 7 -25 6 -34 -2 -10 2 -21 7
-25 6 -3 8 -1 5 4 -4 6 0 16 8 23 13 11 14 10 8 -5 -5 -14 -3 -17 8 -13 10 4
15 -1 15 -12 0 -12 -6 -17 -19 -14 -28 5 -45 23 -42 42 1 9 -3 27 -11 38 -11
19 -10 24 7 43 20 21 35 29 25 12 -8 -12 18 -21 34 -11 7 4 9 13 5 20 -4 7 -2
16 6 21 16 10 25 12 16 3z m64 -20 c11 -14 10 -18 -6 -30 -10 -8 -15 -14 -9
-15 5 0 17 -2 27 -4 15 -3 16 -1 6 11 -7 8 -7 14 -1 14 5 0 15 -7 22 -15 9
-10 9 -15 1 -15 -6 0 -11 -7 -11 -15 0 -8 -5 -15 -11 -15 -5 0 -7 6 -3 13 4 6
4 9 -1 5 -4 -4 -16 -3 -26 3 -15 7 -17 6 -13 -6 3 -8 10 -12 15 -9 5 3 6 -2 3
-11 -4 -9 -13 -13 -23 -11 -9 3 -23 1 -31 -4 -8 -5 -10 -10 -4 -10 6 0 11 -7
11 -16 0 -14 -2 -14 -14 2 -8 11 -19 18 -24 16 -6 -1 -8 2 -4 8 11 18 -6 32
-19 15 -10 -15 -12 -14 -13 3 -1 15 5 18 25 17 16 -1 26 -7 24 -14 -1 -8 2 -9
10 -4 7 4 18 8 23 8 6 1 9 7 7 14 -2 8 5 22 14 32 14 15 14 21 4 34 -7 8 -8
15 -2 15 5 0 16 -7 23 -16z"/>
<path d="M70 1115 c-11 -13 -10 -14 4 -9 9 3 16 10 16 15 0 13 -6 11 -20 -6z"/>
<path d="M381 1204 c0 -11 3 -14 6 -6 3 7 2 16 -1 19 -3 4 -6 -2 -5 -13z"/>
<path d="M495 1210 c-3 -6 -20 -8 -38 -5 -17 4 -29 3 -25 0 3 -4 12 -7 20 -9
7 -1 19 -5 26 -9 7 -5 12 -3 12 3 0 6 4 9 8 6 5 -3 9 1 9 9 0 18 -3 19 -12 5z"/>
<path d="M260 1196 c0 -8 4 -17 9 -20 5 -4 7 3 4 14 -6 23 -13 26 -13 6z"/>
<path d="M306 1191 c-10 -11 -16 -26 -13 -33 3 -8 6 -6 6 5 1 11 6 15 13 11 6
-4 8 -3 4 4 -3 5 0 12 6 15 7 2 10 7 7 11 -3 3 -14 -3 -23 -13z"/>
<path d="M336 1181 c-3 -5 2 -15 12 -22 16 -13 16 -13 2 5 -14 18 -13 19 3 13
9 -3 17 -2 17 3 0 12 -27 13 -34 1z"/>
<path d="M379 1170 c-5 -29 -2 -33 18 -35 14 -1 29 7 38 21 13 21 13 23 0 18
-8 -4 -15 -11 -15 -18 0 -6 -9 -12 -20 -12 -15 0 -18 5 -14 18 3 10 3 18 0 18
-3 0 -7 -4 -7 -10z"/>
<path d="M313 1148 c2 -7 10 -12 17 -10 7 2 10 -3 7 -12 -3 -8 1 -20 8 -26 12
-10 16 -9 21 4 4 9 4 20 0 23 -3 4 -6 -1 -6 -11 0 -9 -5 -14 -10 -11 -6 4 -8
11 -4 16 7 11 -13 39 -28 39 -5 0 -8 -6 -5 -12z"/>
<path d="M300 1098 c0 -6 3 -8 7 -5 3 4 13 1 22 -6 14 -11 14 -10 2 6 -15 20
-31 22 -31 5z"/>
<path d="M265 1059 c-4 -6 -4 -13 -1 -16 3 -4 6 -1 6 6 0 7 5 9 10 6 6 -3 10
-1 10 4 0 14 -17 14 -25 0z"/>
</g>
</svg>
